<svg width="1388" height="113" viewBox="0 0 1388 113" fill="none" xmlns="http://www.w3.org/2000/svg">
<path d="M6.17135 22.8227H45.482V32.4602H17.246V47.5081H39.9024V57.1455H17.246V82H6.17135V22.8227ZM56.865 82.6763C54.1034 82.6763 51.6518 82.1409 49.5101 81.0701C47.3685 79.9429 45.7059 78.4212 44.5223 76.505C43.3388 74.5324 42.747 72.3344 42.747 69.9109C42.747 65.7967 44.1842 62.5279 47.0585 60.1044C49.9892 57.681 53.878 56.4692 58.7249 56.4692H66.587C67.6015 56.4692 68.3623 56.2156 68.8695 55.7084C69.3768 55.1448 69.6304 54.4403 69.6304 53.5949C69.6304 51.4533 68.8695 49.7343 67.3478 48.438C65.8261 47.1418 63.7127 46.4936 61.0074 46.4936C58.3585 46.4936 56.2169 47.1981 54.5825 48.6071C53.0044 50.0161 52.159 51.735 52.0463 53.764H42.6625C42.8879 50.946 43.7896 48.4098 45.3677 46.1555C46.9458 43.8447 49.1156 42.0412 51.8772 40.745C54.6952 39.3924 57.8795 38.716 61.4301 38.716C65.0371 38.716 68.2496 39.3924 71.0676 40.745C73.8855 42.0412 76.0554 43.9011 77.5771 46.3246C79.1551 48.6916 79.9442 51.4533 79.9442 54.6094V82H69.6304V75.6596C68.785 77.8012 67.2069 79.5202 64.8962 80.8165C62.5855 82.0564 59.9084 82.6763 56.865 82.6763ZM52.8071 69.4882C52.8071 71.1227 53.3989 72.4471 54.5825 73.4616C55.766 74.476 57.3441 74.9833 59.3166 74.9833C62.5291 74.9833 65.0371 73.9688 66.8406 71.9399C68.7005 69.9109 69.6304 67.262 69.6304 63.9932V63.3169H60.0775C57.8795 63.3169 56.1042 63.8805 54.7515 65.0077C53.4553 66.1349 52.8071 67.6284 52.8071 69.4882ZM105.315 48.0999C102.103 48.0999 99.7637 49.3398 98.2983 51.8196C96.833 54.243 96.1003 57.5964 96.1003 61.8797V82H85.702V39.3924H96.1003V46.9163C97.1712 44.2111 98.552 42.2949 100.243 41.1677C101.99 39.9841 104.244 39.3924 107.006 39.3924H111.994V48.0999H105.315ZM125.107 82.6763C122.346 82.6763 119.894 82.1409 117.752 81.0701C115.611 79.9429 113.948 78.4212 112.764 76.505C111.581 74.5324 110.989 72.3344 110.989 69.9109C110.989 65.7967 112.426 62.5279 115.301 60.1044C118.231 57.681 122.12 56.4692 126.967 56.4692H134.829C135.844 56.4692 136.604 56.2156 137.112 55.7084C137.619 55.1448 137.872 54.4403 137.872 53.5949C137.872 51.4533 137.112 49.7343 135.59 48.438C134.068 47.1418 131.955 46.4936 129.25 46.4936C126.601 46.4936 124.459 47.1981 122.825 48.6071C121.246 50.0161 120.401 51.735 120.288 53.764H110.905C111.13 50.946 112.032 48.4098 113.61 46.1555C115.188 43.8447 117.358 42.0412 120.119 40.745C122.937 39.3924 126.122 38.716 129.672 38.716C133.279 38.716 136.492 39.3924 139.31 40.745C142.128 42.0412 144.297 43.9011 145.819 46.3246C147.397 48.6916 148.186 51.4533 148.186 54.6094V82H137.872V75.6596C137.027 77.8012 135.449 79.5202 133.138 80.8165C130.828 82.0564 128.151 82.6763 125.107 82.6763ZM121.049 69.4882C121.049 71.1227 121.641 72.4471 122.825 73.4616C124.008 74.476 125.586 74.9833 127.559 74.9833C130.771 74.9833 133.279 73.9688 135.083 71.9399C136.943 69.9109 137.872 67.262 137.872 63.9932V63.3169H128.32C126.122 63.3169 124.346 63.8805 122.994 65.0077C121.697 66.1349 121.049 67.6284 121.049 69.4882ZM153.944 39.3924H164.342V46.0709C165.413 43.8166 166.991 42.0412 169.077 40.745C171.218 39.3924 173.726 38.716 176.601 38.716C179.982 38.716 182.8 39.4205 185.054 40.8295C187.365 42.1821 189 44.1829 189.958 46.8318C190.972 44.5211 192.748 42.6048 195.284 41.0831C197.876 39.5051 200.807 38.716 204.076 38.716C207.063 38.716 209.712 39.3924 212.022 40.745C214.333 42.0976 216.108 43.9856 217.348 46.4091C218.588 48.7762 219.208 51.4533 219.208 54.4403V82H208.81V57.5682C208.81 54.5248 208.077 52.1014 206.612 50.2979C205.147 48.4944 203.174 47.5926 200.694 47.5926C197.933 47.5926 195.735 48.5226 194.1 50.3824C192.522 52.1859 191.733 54.5812 191.733 57.5682V82H181.419V57.5682C181.419 54.5248 180.687 52.1014 179.221 50.2979C177.756 48.4944 175.783 47.5926 173.304 47.5926C170.542 47.5926 168.344 48.4944 166.71 50.2979C165.131 52.1014 164.342 54.5248 164.342 57.5682V82H153.944V39.3924ZM244.709 82.6763C240.426 82.6763 236.594 81.7464 233.212 79.8865C229.83 77.9703 227.182 75.3496 225.265 72.0244C223.349 68.6428 222.391 64.8668 222.391 60.6962C222.391 56.5256 223.349 52.7777 225.265 49.4525C227.182 46.0709 229.83 43.4502 233.212 41.5904C236.594 39.6742 240.426 38.716 244.709 38.716C248.936 38.716 252.74 39.6742 256.122 41.5904C259.504 43.4502 262.152 46.0709 264.069 49.4525C265.985 52.7777 266.943 56.5256 266.943 60.6962C266.943 64.8668 265.985 68.6428 264.069 72.0244C262.152 75.3496 259.504 77.9703 256.122 79.8865C252.74 81.7464 248.936 82.6763 244.709 82.6763ZM232.874 60.6962C232.874 64.5286 233.945 67.6566 236.086 70.08C238.284 72.5035 241.159 73.7152 244.709 73.7152C248.204 73.7152 251.022 72.5035 253.163 70.08C255.361 67.6566 256.46 64.5286 256.46 60.6962C256.46 56.8637 255.361 53.7358 253.163 51.3124C251.022 48.8889 248.204 47.6772 244.709 47.6772C241.159 47.6772 238.284 48.8889 236.086 51.3124C233.945 53.6794 232.874 56.8074 232.874 60.6962ZM265.015 39.3924H275.583L285.389 68.8119L295.196 39.3924H305.847L290.292 82H280.57L265.015 39.3924ZM325.651 82.6763C321.199 82.6763 317.31 81.6337 313.985 79.5484C310.716 77.4631 308.208 74.7296 306.461 71.3481C304.77 67.9665 303.925 64.3595 303.925 60.5271C303.925 56.6383 304.714 53.0595 306.292 49.7907C307.87 46.4655 310.237 43.7884 313.393 41.7594C316.549 39.7305 320.354 38.716 324.806 38.716C329.315 38.716 333.119 39.7023 336.219 41.6749C339.375 43.5911 341.714 46.1273 343.235 49.2834C344.757 52.3832 345.518 55.7084 345.518 59.259C345.518 60.4989 345.462 61.6825 345.349 62.8097H313.9C314.295 66.2476 315.535 68.981 317.62 71.0099C319.705 73.0389 322.383 74.0533 325.651 74.0533C328.3 74.0533 330.47 73.5179 332.161 72.4471C333.852 71.3763 334.979 69.8264 335.542 67.7975H345.687C344.898 72.3062 342.672 75.9132 339.009 78.6184C335.345 81.3237 330.893 82.6763 325.651 82.6763ZM335.12 55.962C334.894 53.144 333.852 50.8615 331.992 49.1143C330.188 47.3672 327.793 46.4936 324.806 46.4936C318.776 46.4936 315.225 49.6498 314.154 55.962H335.12Z" fill="black"/>
<path d="M1384.28 55.4999L1379.08 50.1359L1380.45 48.7217L1388 56.4999L1380.45 64.278L1379.08 62.8638L1384.28 57.4999H367V55.4999H1384.28Z" fill="black"/>
</svg>
